<?xml version="1.0" encoding="utf-8"?>
<!-- Generator: Adobe Illustrator 22.0.0, SVG Export Plug-In . SVG Version: 6.00 Build 0)  -->
<svg version="1.1" id="Camada_1" xmlns="http://www.w3.org/2000/svg" xmlns:xlink="http://www.w3.org/1999/xlink" x="0px" y="0px"
	 viewBox="0 0 192.2 35" style="enable-background:new 0 0 192.2 35;" xml:space="preserve">
<style type="text/css">
	.st0{fill:none;}
	.st1{fill:#FFFFFF;}
	.st2{opacity:0.69;fill:#FFFFFF;enable-background:new    ;}
	.st3{fill:#D47FA5;}
	.st4{fill:#E6B2C7;}
	.st5{fill:#F3D8E2;}
	.st6{fill:#FAECF0;}
	.st7{fill:#D3E4EB;}
	.st8{fill:#3990B0;}
	.st9{fill:#9FC6D6;}
	.st10{fill:#ECF3F6;}
	.st11{fill:#E3F0B5;}
	.st12{fill:#A9D42D;}
	.st13{fill:#CEE683;}
	.st14{fill:#F4F9DF;}
	.st15{fill:#EBBFD0;}
</style>
<g id="XMLID_569_">
	<path id="XMLID_917_" class="st3" d="M18.6,4.6c0,1.6-1.3,2.8-2.8,2.8c-1.6,0-2.8-1.3-2.8-2.8s1.3-2.8,2.8-2.8
		C17.3,1.8,18.6,3.1,18.6,4.6z"/>
	<path id="XMLID_843_" class="st4" d="M18.1,3.5c0.1,0.2,0.1,0.4,0.1,0.7c0,1.5-1.2,2.6-2.6,2.6c-1.1,0-2-0.7-2.4-1.6
		c0.3,1.1,1.3,2,2.5,2c1.5,0,2.6-1.2,2.6-2.6C18.3,4.2,18.2,3.8,18.1,3.5z"/>
	<g id="XMLID_658_">
		<path id="XMLID_838_" class="st5" d="M39.5,0.2c0,0-0.2,22.8-23,21.6c1-8.8,3.1-12,3.1-12L30,1.3"/>
		<path id="XMLID_835_" class="st3" d="M39.5,0.2c0,0-19.7,3.2-23,21.6C16.5,21.8,13.2-2.5,39.5,0.2z"/>
		<path id="XMLID_828_" class="st4" d="M17.5,13.1c0,0,3.1-11.8,15.8-12.3C33.2,0.8,22.2,1.6,17.5,13.1z"/>
		<path id="XMLID_659_" class="st6" d="M17.2,21.3c0,0,12.6-0.4,16.5-8.2C33.6,13.2,24.3,20.4,17.2,21.3z"/>
	</g>
	<g id="XMLID_588_">
		<path id="XMLID_1_" class="st5" d="M0.1,4.9c0,0-2.1,17.1,15.1,16.4c0.1-6.6-1.1-9.1-1.1-9.1l-7-6.4"/>
		<path id="XMLID_620_" class="st3" d="M0.1,4.9c0,0,14.5,2.6,15.1,16.4C15.3,21.4,20.2,3.1,0.1,4.9z"/>
		<path id="XMLID_617_" class="st4" d="M7.5,5.9c0,0,6.6,1.7,7.9,9.1C15.4,14.9,13.9,9.7,7.5,5.9z"/>
		<path id="XMLID_607_" class="st6" d="M14.6,20.9c0,0-8.2-0.3-10.1-5.5C4.6,15.5,10,20.3,14.6,20.9z"/>
	</g>
	<g id="XMLID_575_">
		<path id="XMLID_585_" class="st7" d="M15.2,22.7c0,0-13.5-1.8-14.7,11.8c5.3,0.2,7.4-0.8,7.4-0.8l5.9-5.5"/>
		<path id="XMLID_582_" class="st8" d="M15.2,22.7c0,0-3.6,11.5-14.7,11.8C0.4,34.5,14.5,38.6,15.2,22.7z"/>
		<path id="XMLID_579_" class="st9" d="M6,34.6c0,0,5.8-0.4,8.2-6.9C14.3,27.6,10.8,33.6,6,34.6z"/>
		<path id="XMLID_576_" class="st10" d="M14.3,22.8c0,0-6.6,0.4-8.6,4.5C5.8,27.4,10.6,23.4,14.3,22.8z"/>
	</g>
	<g id="XMLID_570_">
		<path id="XMLID_574_" class="st11" d="M24.7,33.3c0,0,2-10.2-8.3-10.5c-0.3,4,0.3,5.5,0.3,5.5l3.9,4.2"/>
		<path id="XMLID_573_" class="st12" d="M24.7,33.3c0,0-8.5-2.1-8.3-10.5C16.4,22.7,12.7,33.5,24.7,33.3z"/>
		<path id="XMLID_572_" class="st13" d="M16.2,27.4c0,0,0.6,4.6,5.9,5.8C22.1,33.1,17.2,31.1,16.2,27.4z"/>
		<path id="XMLID_571_" class="st14" d="M17.1,23.2c0,0,4.2,0.5,5,3.2C22.1,26.5,19.5,23.7,17.1,23.2z"/>
	</g>
</g>
<g>
	<g>
		<g id="XMLID_524_">
			<g id="XMLID_562_">
				<path id="XMLID_566_" class="st3" d="M180.9,13.1c-1.5,0-2.9,0.5-4.1,1.3c-0.1-0.2-0.1-0.3-0.2-0.4c-0.3-0.4-0.9-0.6-1.5-0.6
					c-0.1,0-0.2,0-0.2,0c-0.1,0-0.1,0-0.2,0.1c-0.2,0.1-0.5,0.1-0.7,0.1c-1.2,0.1-1.6,1-1.6,1.8v0.2c0,1-0.2,2.4-0.4,3.3l-0.9,4.9
					c-0.2,1.3-0.3,2.2-0.6,3.1c-0.1,0.3,0,0.7,0.2,1c0.3,0.5,1,0.7,1.6,0.7l0,0h0.2c1.1,0,2.3-0.6,2.4-1.6c0-0.6,0.1-1.2,0.2-1.8
					l0.5-3.1c0.2-1.3,0.5-3.2,1.3-4.1s1.8-1.6,2.6-1.6s1.2,0.2,1.2,1.4c0,0.8-0.2,2-0.4,3l-0.3,1.7c-0.3,2.2-0.6,3.6-0.9,4.5
					c-0.1,0.3,0,0.7,0.2,1c0.3,0.4,0.9,0.7,1.6,0.7v-0.3l0,0l0,0l0,0l0.1,0.3h0.2c1.3,0,2.3-0.7,2.4-1.7c0.1-1.2,0.4-3.1,0.6-4.5
					c0.1-0.2,0.1-0.5,0.1-0.7c0.1-0.3,0.1-0.7,0.2-1.1c0.1-0.3,0.1-0.6,0.2-0.9c0.1-0.3,0.1-0.7,0.2-1c0.2-1.3,0.3-1.8,0.3-2.3
					C185.2,13.9,183,13.1,180.9,13.1z"/>
				<path id="XMLID_563_" class="st15" d="M173.3,14.6c0,0-0.6,7.3-2,12.5C171.2,27.3,173.7,21.5,173.3,14.6z"/>
			</g>
			<g id="XMLID_550_">
				<path id="XMLID_554_" class="st3" d="M169.1,13.5l-0.3,0.1c-0.7-0.3-1.6-0.5-2.8-0.5c-1.8,0-3.5,0.5-4.8,1.6
					c-3.9,3.1-4.7,7.9-4.7,9.3c0,3.3,2.4,4.7,4.7,4.7c1.8,0,3.1-1.1,4.1-2.4c0,0.2-0.1,0.4-0.1,0.6c0,0.3,0.1,0.6,0.3,0.9
					c0.3,0.4,0.9,0.6,1.6,0.6h0.1c1,0,2.1-0.6,2.1-1.4c0-0.8,0.2-2.7,0.6-4.7l0.5-2.6c0.4-2.3,0.7-3.6,0.9-4.5l0.1-0.2
					c0.1-0.3-0.1-0.7-0.3-1C170.4,13.5,169.8,13.4,169.1,13.5z M165.5,15.5c0.5,0,0.9,0.1,1.4,0.2l-0.6,3.5
					c-0.5,2.7-0.9,4.1-1.6,5.1c-1,1.4-2,1.6-2.4,1.6c-1,0-1.6-1-1.6-2.8C160.6,21.4,161.4,15.5,165.5,15.5z"/>
				<path id="XMLID_551_" class="st15" d="M161.7,14.9c0,0-2.9,1.5-4.4,6.2c-1.7,5.4,1.8,7.2,3.1,7.3c0,0-1.2-0.6-2-2
					C157.1,23.9,156.5,19.3,161.7,14.9z"/>
			</g>
			<g id="XMLID_540_">
				<path id="XMLID_547_" class="st3" d="M152.1,18l-1.6-0.9c-0.9-0.5-1.8-1-1.8-2.5c0-0.8,0.6-3.1,3.5-3.1c1,0,1.7,0.3,2.2,0.5
					c0.4,0.2,0.9,0.2,1.1,0.2c0.7,0,1.3-0.3,1.4-0.8v-0.1c0.1-0.4,0.1-0.9-0.2-1.3c-0.3-0.5-0.7-0.7-1.3-0.9
					c-0.9-0.2-1.8-0.3-2.6-0.3c-5.5,0-8.4,3.2-8.4,6.3c0,2.1,1.7,3.2,3.1,4.1l1.5,0.9c1.6,0.9,2.2,1.4,2.2,2.6c0,2-1.6,3.4-3.9,3.4
					c-0.5,0-1.2-0.1-1.9-0.3l0,0l-0.1-0.1c-0.5-0.2-0.9-0.3-1.3-0.3c-0.8,0-1.4,0.3-1.6,0.9c-0.1,0.4-0.1,0.9,0.1,1.3
					c0.2,0.5,0.7,0.7,1.2,0.9c0.8,0.2,1.7,0.3,2.5,0.3c2.2,0,4.3-0.5,5.8-1.4c0.9-0.6,3.6-2.6,3.6-5.4C155.5,20,153.6,18.9,152.1,18
					z"/>
				<path id="XMLID_544_" class="st15" d="M148.9,9.9c0,0-6.6,3.3-2.4,8.2C146.4,18.1,143.4,13.5,148.9,9.9z"/>
				<path id="XMLID_541_" class="st15" d="M148.9,26.5c0,0,4.9-1.9,1.4-6C150.4,20.6,155,24.8,148.9,26.5z"/>
			</g>
			<g id="XMLID_525_">
				<path id="XMLID_537_" class="st3" d="M189.6,12.4c1.6,0,2.5-1.4,2.5-2.4c0-1-1-1.6-2-1.6c-1.7,0-2.6,1.4-2.6,2.4
					C187.6,11.9,188.7,12.4,189.6,12.4z"/>
				<path id="XMLID_534_" class="st3" d="M186.8,28.2h0.2c1,0,2.1-0.6,2.2-1.4c0.1-1.1,0.3-2.8,0.7-5.1l0.7-4.3
					c0.1-0.7,0.3-1.4,0.4-2v-0.1c0-0.1,0-0.3,0.1-0.4V15c0-0.3-0.1-0.6-0.3-0.9c-0.3-0.3-0.7-0.5-1.2-0.5c-0.1,0-0.2,0-0.3,0.1
					l-0.2,0.1c-0.2,0.1-0.5,0.1-0.7,0.1c-1.1,0.1-1.5,0.9-1.4,1.7c0,0.9-0.2,2.6-0.9,6.1l-0.5,2.6c-0.2,1-0.3,1.7-0.5,2.2l-0.1,0.2
					v0.1c0,0,0,0,0,0.1v0.1c-0.1,0.3,0.1,0.7,0.3,1C185.9,28,186.4,28.2,186.8,28.2z"/>
				<g id="XMLID_526_">
					<g id="XMLID_54_">
						<g id="XMLID_62_">
							<path id="XMLID_81_" class="st15" d="M187.6,15.5c0,0-0.9,6.6-1.6,10.6c-0.1,0.3,0.2,2,0.9-3.5
								C187.7,17.3,187.8,14,187.6,15.5z"/>
						</g>
					</g>
				</g>
			</g>
		</g>
		<g id="XMLID_488_">
			<g id="XMLID_517_">
				<path id="XMLID_521_" class="st12" d="M120.8,15.6c-1.4,0-2.2,0.5-2.8,0.8c-0.3,0.2-0.6,0.5-0.9,0.9c0-0.1,0.1-0.1,0.1-0.2l0,0
					c0-0.2-0.1-0.5-0.2-0.7c-0.3-0.3-0.9-0.5-1.4-0.4c-0.3,0.1-0.5,0.1-0.8,0.1c-0.7,0.1-1.1,0.7-1.2,1.3l0,0l0,0
					c0,0.3,0,1.1-0.2,2.1v0.1c0,0.1,0,0.2-0.1,0.3v0.1c0,0.2-0.1,0.3-0.1,0.5c-0.1,0.2-0.1,0.4-0.1,0.6c-0.1,0.2-0.1,0.3-0.1,0.5
					c-0.1,0.2-0.1,0.4-0.2,0.7l-1.5,7.7c0,0.1-0.1,0.1-0.1,0.2c0,0.2-0.1,0.3-0.1,0.5c0,0.1-0.1,0.2-0.1,0.2l-0.1,0.3
					c-0.2,0.7-0.3,1.6-0.5,2.2c-0.1,0.2,0,0.5,0.2,0.7c0.3,0.3,0.8,0.6,1.3,0.6h0.2c0.1,0,0.1,0,0.1,0c1,0,1.7-0.6,1.8-1.4V33
					c0.1-0.4,0.1-1,0.2-1.7c0.1-0.5,0.2-0.9,0.3-1.4c0-0.1,0.1-0.2,0.1-0.3c0.1-0.3,0.1-0.5,0.2-0.8c0.6,0.1,1.2,0.1,1.6,0.1
					c1.8,0,3.6-0.7,4.9-2.1c1.7-1.7,2.9-4.7,2.9-7.3C124.4,17.1,123,15.6,120.8,15.6z M119.2,25.7c-0.5,0.5-1.2,1.3-2.5,1.3
					c-0.6,0-1-0.2-1.4-0.4c0-0.1,0-0.2,0.1-0.3l0.1-0.5c0.2-1.1,0.5-2.7,0.9-3.8c0.7-2.4,2-4,3.2-4c1.3,0,1.3,1.7,1.3,2.2
					C120.9,21.6,120.4,24.3,119.2,25.7z"/>
				<path id="XMLID_518_" class="st13" d="M114.2,18c0,0-2,11.1-2.6,13.5c-0.6,2.4-0.2,3.9,1.2-3.6C114.2,20.6,114.9,16.1,114.2,18z
					"/>
			</g>
			<g id="XMLID_507_">
				<path id="XMLID_515_" class="st12" d="M141.7,15.8c-0.3-0.3-0.7-0.5-1.3-0.5c-0.1,0-0.1,0-0.2,0c-0.1,0-0.2,0-0.3,0.1
					c-0.1,0-0.1,0-0.1,0c0,0,0,0-0.1,0c-0.9,0.2-1.6,0.9-1.6,1.7c0,0.6-0.2,1.6-0.4,2.8c-0.3,1.7-0.9,3.8-1.3,4.6v0.1
					c-0.9,1.4-2.1,1.5-2.2,1.5c-0.6,0-0.9-0.5-0.9-1.3c0-0.5,0.1-1,0.3-2.1l0.6-3.3c0-0.1,0.1-0.2,0.1-0.2c0-0.1,0.1-0.1,0.1-0.2
					c0.2-0.7,0.2-1.1,0.4-1.8l0.1-0.3c0.1-0.3,0-0.5-0.2-0.7c-0.3-0.3-0.8-0.6-1.3-0.6c-0.1,0-0.1,0-0.2,0c-0.1,0-0.3,0-0.3,0.1l0,0
					c-0.1,0-0.2,0-0.3,0.1l0,0c-0.9,0.2-1.3,1-1.3,1.6c0,0.3-0.1,0.7-0.2,1l-1.2,6c-0.1,0.8-0.2,1.2-0.2,1.5c0,1.9,1.8,2.7,3.5,2.7
					c0,0,1.7,0,2.9-0.9c0.2-0.2,0.5-0.3,0.6-0.6c0.1,0.2,0.2,0.4,0.3,0.6c0.3,0.3,0.9,0.6,1.4,0.6c0.6,0,1.1-0.2,1.4-0.6
					c0.2-0.2,0.3-0.5,0.3-0.8v-0.2c0-0.9,0.2-2.4,0.7-5.5c0.3-1.8,0.6-3.4,1-4.7C142,16.2,141.9,15.9,141.7,15.8z"/>
				<path id="XMLID_508_" class="st13" d="M131.3,16.9c0,0-0.7,5.5-1.3,8.9c-0.1,0.3,0.5,1.8,0.9-2.7
					C131.4,18.6,131.6,15.7,131.3,16.9z"/>
			</g>
			<g id="XMLID_489_">
				<path id="XMLID_501_" class="st12" d="M128.2,14.3c1.4,0,2.1-1.2,2.1-2.1c0-0.9-0.9-1.3-1.7-1.3c-1.4,0-2.2,1.2-2.2,2
					C126.4,13.9,127.3,14.3,128.2,14.3z"/>
				<path id="XMLID_500_" class="st12" d="M125.7,27.9h0.2c0.9,0,1.8-0.5,1.9-1.3c0.1-0.9,0.3-2.4,0.6-4.4l0.6-3.7
					c0.1-0.6,0.2-1.2,0.3-1.7v-0.1c0-0.1,0-0.2,0.1-0.3l0,0c0-0.3-0.1-0.6-0.3-0.7c-0.2-0.3-0.6-0.4-1-0.4c-0.1,0-0.2,0-0.3,0.1
					h-0.2c-0.2,0.1-0.4,0.1-0.6,0.1c-1,0.1-1.3,0.8-1.2,1.4c0,0.8-0.2,2.2-0.7,5.2l-0.4,2.2c-0.1,0.9-0.3,1.4-0.4,1.9l-0.1,0.1v0.1
					c0,0,0,0,0,0.1v0.1c-0.1,0.3,0.1,0.6,0.3,0.9C125,27.7,125.3,27.9,125.7,27.9z"/>
				<g id="XMLID_495_">
					<path id="XMLID_496_" class="st13" d="M126.4,16.9c0,0-0.8,5.6-1.3,9.1c-0.1,0.3,0.2,1.7,0.8-2.9
						C126.4,18.5,126.6,15.7,126.4,16.9z"/>
				</g>
			</g>
		</g>
	</g>
	<g id="XMLID_3_">
		<g id="XMLID_475_">
			<path id="XMLID_479_" class="st8" d="M101.2,28.9L101.2,28.9c1.2,0,1.9-0.2,2.6-0.2c0.9-0.2,1.6-0.9,1.9-1.6
				c0.1-0.2,0-0.5-0.2-0.7c-0.3-0.4-1-0.5-1.5-0.3c-0.5,0.2-1.3,0.5-2.3,0.5c-1.9,0-2.3-1.6-2.3-3c0-0.3,0-0.5,0-0.7
				c2-0.1,3.7-0.2,5.2-1c0.5-0.3,2-1.1,2.8-2.3c0.6-0.9,1-2,1-2.8c0-1.6-1.2-3.4-4.4-3.4c-0.9,0-4.1,0.2-6.4,3
				c-0.4,0.5-2.3,3-2.3,6.4C95.3,25.6,96,28.8,101.2,28.9z M99.7,21.5c0.2-1.9,0.9-3.7,1.6-4.6c1.1-1.2,1.9-1.4,2.2-1.4
				c0.5,0,0.9,0.5,0.9,1.4s-0.4,1.8-1,2.4C102.1,20.5,100.8,21.3,99.7,21.5z"/>
			<path id="XMLID_476_" class="st9" d="M100.1,15c0,0-3.9,2.3-4.4,7.3s3.6,5.9,3.6,5.9S91.7,22.9,100.1,15z"/>
		</g>
		<g id="XMLID_463_">
			<path id="XMLID_467_" class="st8" d="M79.5,28.9L79.5,28.9c1.2,0,1.9-0.2,2.6-0.2c0.9-0.2,1.6-0.9,1.9-1.6c0.1-0.2,0-0.5-0.2-0.7
				c-0.3-0.4-1-0.5-1.5-0.3c-0.5,0.2-1.3,0.5-2.3,0.5c-1.9,0-2.3-1.6-2.3-3c0-0.3,0-0.5,0-0.7c2-0.1,3.7-0.2,5.2-1
				c0.5-0.3,2-1.1,2.8-2.3c0.6-0.9,1-2,1-2.8c0-1.6-1.2-3.4-4.4-3.4c-0.9,0-4.1,0.2-6.4,3c-0.4,0.5-2.3,3-2.3,6.4
				C73.6,25.6,74.3,28.8,79.5,28.9z M78,21.5c0.2-1.9,0.9-3.7,1.6-4.6c1.1-1.2,1.9-1.4,2.2-1.4c0.5,0,0.9,0.5,0.9,1.4
				s-0.4,1.8-1,2.4C80.5,20.5,79.2,21.3,78,21.5z"/>
			<path id="XMLID_464_" class="st9" d="M78.5,15c0,0-3.9,2.3-4.4,7.3c-0.5,5.1,3.6,5.9,3.6,5.9S70,22.9,78.5,15z"/>
		</g>
		<g id="XMLID_456_">
			<path id="XMLID_460_" class="st8" d="M86.4,27.7c0.3,0.4,0.9,0.7,1.6,0.7h0.2h0.1c1.1,0,2-0.7,2.1-1.6c0.2-1.6,0.7-5,1.1-6.3
				c0.8-3,2.3-3.6,2.8-3.7c0,0,0,0,0.1,0c0.6-0.2,1.9-0.6,2.3-1.6c0.1-0.3,0.1-0.7-0.2-1c-0.3-0.5-1-0.7-1.6-0.5
				c-0.6,0.2-1.2,0.5-1.6,0.7c-0.3,0.2-0.6,0.5-0.9,0.8c0-0.2-0.1-0.5-0.3-0.6c-0.4-0.4-1.1-0.6-1.8-0.5l0,0c-0.2,0-0.4,0.1-0.6,0.1
				c-1.1,0.2-1.6,1-1.6,1.7c0,0.6-0.1,1.5-0.3,2.8l-1.2,6.9c-0.1,0.2-0.2,0.6-0.3,1.2C86.2,27,86.2,27.4,86.4,27.7z"/>
			<path id="XMLID_457_" class="st9" d="M88.7,15.2c0,0-0.6,6.8-1.9,11.6C86.7,26.9,89,21.6,88.7,15.2z"/>
		</g>
		<g id="XMLID_449_">
			<path id="XMLID_455_" class="st8" d="M58.3,13.6c1.6,0,2.5-1.4,2.5-2.3c0-1-0.9-1.5-1.9-1.5c-1.6,0-2.5,1.3-2.5,2.3
				C56.3,13.2,57.3,13.6,58.3,13.6z"/>
			<path id="XMLID_454_" class="st8" d="M55.5,29.2h0.2c1,0,2.1-0.5,2.2-1.4c0.1-1.1,0.3-2.7,0.8-5l0.8-4.2c0.2-0.7,0.2-1.3,0.4-1.9
				v-0.1c0-0.1,0-0.3,0.1-0.4l0,0c0-0.3-0.1-0.6-0.3-0.9c-0.3-0.3-0.7-0.5-1.2-0.5c-0.1,0-0.2,0-0.3,0H58C57.7,15,57.5,15,57.3,15
				c-1.1,0.1-1.5,0.9-1.4,1.6c0,0.9-0.2,2.6-0.9,6l-0.5,2.6c-0.2,0.9-0.3,1.6-0.5,2.2v0.2v0.1l0,0v0.1c-0.1,0.3,0.1,0.7,0.4,1
				C54.6,29,55.1,29.2,55.5,29.2z"/>
			<g id="XMLID_450_">
				<path id="XMLID_451_" class="st9" d="M56.2,16.6c0,0-0.9,6.5-1.6,10.4c-0.1,0.3,0.2,2,0.9-3.4C56.3,18.4,56.5,15.2,56.2,16.6z"
					/>
			</g>
		</g>
		<g id="XMLID_441_">
			<path id="XMLID_446_" class="st8" d="M62.4,22.4c0.1,0.3,0.1,0.6,0.2,1c0.1,0.6,0.2,1.4,0.4,2.2v0.2c0.1,0.6,0.2,1.2,0.2,1.8
				c0.1,0.9,1.1,1.6,2.3,1.6c1.2,0,2.4-0.5,2.8-1.3c0.2-0.4,0.5-0.9,0.9-1.7l0.8-1.6c1.9-4,2.1-4.4,3.4-6.6c0.4-0.6,0.7-1.2,1-1.7
				c0.2-0.2,0.2-0.5,0-0.9c-0.2-0.4-0.8-0.7-1.3-0.7c-1.2,0-2.3,0.6-2.6,1.6c-0.2,0.9-0.6,1.9-1.2,3.2l-2.7,5.6
				c-0.5-2.4-0.5-2.7-0.9-6.2v-0.2c-0.1-0.9-0.2-1.6-0.2-2.3c0-0.9-0.9-1.6-1.9-1.6h-0.1h-0.7c-0.6,0-1.2,0.2-1.5,0.6
				c-0.1,0.1-0.2,0.2-0.2,0.7c-0.1,0.5,0.3,1.1,0.5,1.9L62.4,22.4z"/>
			<g id="XMLID_442_">
				<path id="XMLID_443_" class="st9" d="M61.8,16.7c0,0,1.2,6.4,1.9,10.4c0,0.4,0.9,1.9-0.2-3.5C62.5,18.3,61.6,15.2,61.8,16.7z"/>
			</g>
		</g>
		<g id="XMLID_4_">
			<path id="XMLID_438_" class="st8" d="M55.3,11.9c0.2-0.2,0.2-0.5,0.1-0.8c-0.2-0.4-0.6-0.6-1.2-0.6h-0.2c-0.2,0-0.4,0-0.5,0h-0.1
				c-1.2,0-2.2,0.6-2.6,1.6c-0.2,0.8-0.7,2-1.5,3.5c-0.3,0.7-0.7,1.6-1.2,2.3c-0.3,0.5-0.5,1-0.9,1.6c-0.2,0.2-0.2,0.5-0.4,0.8
				c-0.1,0.2-0.2,0.4-0.3,0.6c-0.3,0.5-0.6,1.2-0.9,1.7c-0.3,0.6-0.6,1.2-0.9,1.7c0,0,0,0,0,0.1l-1.1-8.8c-0.2-1.6-0.3-2.7-0.3-3.6
				c0-0.4-0.2-0.7-0.4-1c-0.4-0.4-0.9-0.6-1.6-0.6c-0.1,0-0.1,0-0.2,0c-0.2,0-0.4,0-0.5,0h-0.3c-0.5,0-1.1,0.2-1.3,0.6
				c-0.2,0.2-0.2,0.5-0.2,0.9c0.2,0.9,0.5,1.9,0.7,3.4l1.3,8.7c0.2,1.2,0.3,2.1,0.4,2.6c0,0.1,0,0.2,0.1,0.3c0,0.1,0,0.2,0,0.3v0.1
				l0,0v0.2c0.1,0.9,1.3,1.6,2.4,1.6h0.2c1.2,0,2.3-0.6,2.8-1.5c0.5-0.9,1.2-2.3,2.3-4.3c0.4-0.7,0.8-1.5,1.2-2.3
				c0.3-0.5,0.6-1.1,0.9-1.6c0.3-0.5,0.6-1.1,0.9-1.6l1.8-3.3C54.6,13.1,55.1,12.2,55.3,11.9z"/>
			<g id="XMLID_5_">
				<path id="XMLID_6_" class="st9" d="M39.6,11.8c-0.1,0.8,1.8,11.5,2.4,15.4c0,0.4,0.8,1.9-0.2-3.5C40.9,18.5,39.6,11.1,39.6,11.8
					z"/>
			</g>
		</g>
	</g>
</g>
</svg>
